<?xml version="1.0" encoding="utf-8"?>
<svg viewBox="-0.5 2.002 100 100" xmlns="http://www.w3.org/2000/svg">
  <rect width="100" height="100" rx="50" fill="#8e9779" x="-0.5" y="2.002"/>
  <g>
    <path fill="#CCD6DD" d="M 74.857 46.878 C 74.857 31.273 63.798 21.908 49.97 21.908 C 36.142 21.908 25.314 31.273 25.314 46.878 C 25.314 55.578 25.056 63.09 35.084 66.602 L 35.084 73.408 C 35.084 75.992 37.505 78.088 40.097 78.088 C 42.692 78.088 45.111 75.992 45.111 73.408 L 45.111 68.483 L 45.111 73.408 C 45.111 75.992 47.531 78.088 50.125 78.088 C 52.723 78.088 55.139 75.992 55.139 73.408 L 55.139 68.483 L 55.139 73.408 C 55.139 75.992 57.561 78.088 60.153 78.088 C 62.745 78.088 65.167 75.992 65.167 73.408 L 65.167 66.602 C 75.195 63.09 74.857 55.578 74.857 46.878 Z"/>
    <circle fill="#292F33" cx="13.629" cy="15.503" r="3.121" transform="matrix(2.506964, 0, 0, 2.5, 5, 5)"/>
    <path fill="#292F33" d="M 68.897 43.758 C 68.897 48.068 68.897 51.56 61.073 51.56 C 53.252 51.56 53.252 48.068 53.252 43.758 C 53.252 39.448 56.751 35.955 61.073 35.955 C 65.398 35.955 68.897 39.448 68.897 43.758 Z M 53.101 57.897 C 52.708 56.943 51.532 56.243 50.12 56.243 C 48.714 56.243 47.536 56.943 47.142 57.897 C 46.154 58.173 45.425 59.07 45.425 60.143 C 45.425 61.435 46.475 62.482 47.774 62.482 C 48.799 62.482 49.662 61.825 49.98 60.912 C 50.028 60.912 50.073 60.923 50.12 60.923 C 50.168 60.923 50.213 60.912 50.263 60.912 C 50.584 61.825 51.447 62.482 52.469 62.482 C 53.765 62.482 54.816 61.435 54.816 60.143 C 54.816 59.07 54.086 58.178 53.101 57.897 Z"/>
    <path d="M 32.577 72.5 C 32.577 71.583 32.765 70.718 33.065 69.905 C 30.599 68.788 28.475 67.2 26.791 64.98 C 24.015 67.402 21.368 69.67 18.951 71.718 C 17.497 70.65 15.717 70 13.774 70 C 8.928 70 5 73.915 5 78.75 C 5 83.195 8.334 86.822 12.636 87.385 C 13.2 91.678 16.838 95 21.295 95 C 26.141 95 30.07 91.085 30.07 86.25 C 30.07 84.313 29.418 82.538 28.35 81.087 C 29.854 79.322 31.474 77.438 33.191 75.462 C 32.797 74.553 32.577 73.553 32.577 72.5 Z M 74.874 33.795 C 77.09 31.873 79.209 30.057 81.179 28.388 C 82.606 29.395 84.343 30 86.226 30 C 91.074 30 95 26.082 95 21.25 C 95 16.892 91.799 13.307 87.617 12.64 C 87.065 8.337 83.42 5 78.955 5 C 74.107 5 70.181 8.917 70.181 13.75 C 70.181 15.687 70.833 17.462 71.903 18.913 C 70.414 20.662 68.812 22.525 67.113 24.48 C 70.372 26.658 73.031 29.718 74.874 33.795 Z M 13.774 30 C 15.717 30 17.497 29.35 18.951 28.283 C 20.954 29.98 23.115 31.83 25.379 33.792 C 27.222 29.715 29.879 26.655 33.141 24.478 C 31.438 22.525 29.839 20.66 28.347 18.913 C 29.418 17.462 30.07 15.687 30.07 13.75 C 30.07 8.917 26.141 5 21.295 5 C 16.838 5 13.2 8.325 12.636 12.615 C 8.334 13.177 5 16.805 5 21.25 C 5 26.082 8.928 30 13.774 30 Z M 86.226 70 C 84.34 70 82.606 70.605 81.177 71.613 C 78.79 69.59 76.188 67.36 73.458 64.98 C 71.773 67.203 69.65 68.788 67.183 69.908 C 67.486 70.718 67.674 71.583 67.674 72.5 C 67.674 73.553 67.453 74.553 67.06 75.462 C 68.777 77.438 70.397 79.322 71.901 81.087 C 70.833 82.538 70.181 84.313 70.181 86.25 C 70.181 91.085 74.107 95 78.955 95 C 83.42 95 87.065 91.665 87.617 87.36 C 91.799 86.693 95 83.108 95 78.75 C 95 73.915 91.074 70 86.226 70 Z" fill="#AAB8C2"/>
  </g>
</svg>