<svg width="1024" height="1024" xmlns="http://www.w3.org/2000/svg" stroke="null" style="vector-effect: non-scaling-stroke;">
 <g stroke="null">
  <!--<ellipse stroke-width="0" stroke="#000" ry="512" rx="512" id="svg_1" cy="512" cx="512" fill="#9fae81"/>-->
  <path id="svg_6" d="m590.04766,533.54411" opacity="NaN" stroke-width="0" stroke="#000" fill="#000000"/>
  <path id="svg_7" d="m569.4313,641.04371" opacity="NaN" stroke-width="0" stroke="#000" fill="#000000"/>
  <path stroke="null" d="m621.12003,14.59131c-95.74173,-21.00629 -191.11546,-13.5049 -277.31684,16.77519l409.07759,283.03787l-45.69664,-272.86493c-27.39172,-11.31475 -56.11822,-20.37968 -86.06412,-26.94813zm121.31928,43.13252l82.68243,485.56157l158.73673,-223.23957c-45.63696,-112.03752 -130.55528,-206.24755 -241.41916,-262.32201zm-431.63548,-13.46113c-113.01821,48.74613 -207.18845,137.74039 -260.6968,253.08799l494.44349,-91.85477l-233.74669,-161.23322zm684.10084,305.64748l-280.01622,405.73369l268.6955,-51.31224c10.79158,-26.52442 19.4706,-54.29211 25.81625,-83.19565l2.3095,-11.11782c17.63255,-89.92522 10.44944,-179.01496 -16.80503,-260.10799zm-682.91725,-69.03629l-275.36142,48.39006c-9.03708,23.59229 -16.47681,48.1792 -22.0566,73.60954c-21.16145,96.45189 -13.35371,192.53776 17.49529,279.24639l279.92273,-401.24599zm-114.25551,213.3133l-151.63318,223.27736c48.2349,109.07754 134.14585,200.1784 245.01967,253.46396l-93.38648,-476.74132zm772.35312,240.40863l-481.84171,93.47202l221.55071,153.15495c111.91419,-47.30394 205.63884,-133.99864 260.291,-246.62697zm-694.77307,-14.41795l46.62561,264.30726c25.83614,10.36589 52.82604,18.76641 80.914,24.92508c95.19867,20.88694 190.05321,13.58645 275.86867,-16.27192l-403.40828,-272.96042z" fill="#bccca5"/>
  <g stroke="null">
      
   <metadata stroke="null">Created by potrace 1.15, written by Peter Selinger 2001-2017</metadata>
   <g stroke="null" fill="#bccca5" transform="translate(0 1131) scale(0.1 -0.1)">
    <path stroke="null" d="m3933.83971,8502.13606c-116.36251,-17.20854 -212.23867,-88.09134 -267.55183,-198.71767c-30.72954,-61.45907 -49.16726,-125.78624 -63.09798,-217.15539c-6.96536,-48.75753 -7.37509,-253.21138 0,-319.58718c23.76418,-218.38458 79.07734,-458.89442 164.71032,-720.30035c15.56963,-48.3478 28.6809,-89.73025 28.6809,-91.77888c0,-2.45836 -6.96536,-5.73618 -15.1599,-6.96536c-52.8548,-9.42372 -167.57841,-34.82681 -245.01684,-54.08399c-245.42657,-61.04935 -430.62324,-125.78624 -598.20165,-208.55112c-131.11269,-64.73689 -222.89157,-125.78624 -295.00355,-196.66904c-229.44721,-224.94021 -184.37722,-488.8045 118.41115,-694.07781c216.74567,-146.68232 562.14566,-272.05883 977.609,-354.82372c30.31981,-6.14591 55.72289,-11.47236 56.54235,-12.29181c0.81945,-0.81945 -13.521,-45.88944 -31.54899,-100.79288c-93.00807,-282.71174 -147.09205,-527.31885 -164.71032,-746.93261c-6.96536,-89.73025 -2.86809,-248.70439 8.19454,-311.80237c38.10463,-215.51649 126.19597,-334.74709 281.07283,-381.45599c32.77817,-9.83345 43.84081,-11.06263 100.38315,-11.47236c52.8548,-0.40973 70.8828,1.22918 106.52906,9.014c190.52313,43.02135 394.97698,164.30059 639.17437,379.81708c77.02871,68.01471 239.28066,230.67639 319.17746,320.81637c34.41708,38.51435 64.32716,70.47307 65.96607,70.47307c1.63891,0 31.54899,-31.95872 65.96607,-70.8828c78.25789,-87.68161 241.3293,-251.9822 315.08019,-316.71909c229.03748,-201.99549 426.11625,-324.91364 596.97247,-372.03226c61.45907,-16.79881 91.36916,-20.89609 150.77959,-20.89609c70.06334,0 102.02206,6.96536 159.79359,34.82681c122.91815,59.41044 192.98149,174.13404 226.16939,370.80308c6.14591,37.28517 7.37509,67.60498 7.37509,176.18268c0,136.02942 -2.04864,163.07141 -20.89609,288.85765c-26.63227,173.31459 -78.66761,381.45599 -149.14069,593.69465c-15.97936,47.93808 -28.27117,88.09134 -27.86145,88.50107c0.81945,0.81945 26.22254,6.14591 56.54235,11.88209c405.62989,79.8968 761.68279,208.96085 977.609,355.23345c302.78837,205.27331 347.85836,469.54732 118.41115,694.07781c-186.01613,181.91886 -569.52075,342.12218 -1065.29061,444.55397c-47.11862,9.83345 -86.45243,18.028 -87.27188,18.43772c-0.40973,0.40973 12.29181,40.15326 28.27117,88.50107c85.63298,260.58647 137.2586,482.65859 164.30059,706.36962c8.19454,70.06334 6.96536,299.92028 -2.04864,352.36536c-23.76418,136.02942 -62.27853,228.62775 -124.96678,297.05219c-25.81281,28.27117 -78.25789,66.78553 -109.39715,79.8968c-215.10676,92.18861 -512.9784,-26.63227 -889.10794,-354.41399c-71.70225,-62.68826 -252.39193,-243.78766 -327.372,-328.60118c-33.59763,-38.10463 -62.27853,-68.83416 -63.91744,-68.83416c-1.22918,0 -30.31981,30.72954 -63.50771,68.83416c-75.3898,84.81352 -256.4892,265.91293 -327.78173,328.60118c-221.25267,193.80095 -426.11625,319.58718 -594.10438,364.65717c-67.60498,18.028 -145.86287,24.58363 -200.76631,16.38909zm120.86951,-137.2586c234.36394,-38.10463 577.30557,-296.23274 931.71956,-701.4529l43.84081,-49.98671l-55.31317,-69.24389c-104.0707,-131.11269 -239.69039,-317.12882 -327.78173,-449.47069l-27.04199,-41.38244l-72.93143,-5.32645c-163.48114,-11.47236 -384.32408,-36.46572 -542.88849,-61.45907c-65.14662,-9.83345 -73.34116,-10.65291 -76.20925,-4.91673c-2.04864,3.68754 -17.61827,49.16726 -34.41708,100.79288c-201.17604,614.18101 -220.43321,1079.22134 -51.62562,1233.27875c53.26453,48.3478 120.45978,63.91744 212.6484,49.16726zm2246.12429,0.40973c43.02135,-9.42372 71.70225,-24.99336 104.0707,-57.3618c34.41708,-34.82681 53.67426,-67.60498 72.93143,-125.37651c73.75089,-222.48185 25.40308,-615.00047 -134.80024,-1102.16606l-34.82681,-104.89015l-45.88944,7.37509c-65.55635,10.65291 -209.78031,29.91008 -296.23274,39.74353c-86.86216,10.24318 -302.37864,29.09063 -327.372,29.09063l-17.20854,0l-47.52835,70.8828c-90.13998,133.98078 -206.91222,293.36465 -309.34401,422.01897l-54.90344,68.83416l45.88944,52.03535c161.84223,184.37722 338.84436,355.64317 478.97105,464.22087c233.13475,180.68968 432.67188,263.86429 566.24293,235.59312zm-1141.09014,-908.77484c73.75089,-92.59834 239.69039,-316.71909 281.07283,-380.2268l6.55563,-10.24318l-327.372,0c-216.74567,0 -326.14282,1.22918 -324.50391,4.09727c5.32645,8.60427 81.5357,116.77224 113.0847,159.79359c80.71625,111.44579 206.09276,272.46856 211.41921,272.46856c1.63891,0 19.6669,-20.89609 39.74353,-45.88944zm349.49727,-531.0064l34.82681,-2.86809l48.3478,-75.79952c67.60498,-105.70961 166.75895,-272.46856 226.16939,-378.99762c61.04935,-109.80688 146.68232,-272.87829 146.68232,-278.61447c0,-5.73618 -86.45243,-170.03677 -146.68232,-278.61447c-59.82017,-107.34852 -158.97414,-273.28802 -226.16939,-378.99762l-48.3478,-75.79952l-51.21589,-3.68754c-66.78553,-4.91673 -679.32763,-4.91673 -745.70343,0l-50.80617,3.68754l-38.10463,59.41044c-116.77224,181.91886 -249.11411,410.54661 -350.72645,606.3962l-35.23654,67.19525l29.09063,55.72289c125.78624,239.28066 249.52384,453.97769 365.88635,632.61873l30.72954,47.52835l21.30581,0.40973c11.88209,0.40973 54.08399,2.04864 93.41779,3.68754c81.94543,3.68754 644.09109,0.81945 696.53617,-3.27782zm-984.16464,-16.38909c-0.40973,-1.63891 -24.99336,-41.38244 -53.67426,-88.09134c-84.40379,-137.66833 -170.4465,-288.44792 -251.16275,-440.04697c-11.06263,-20.89609 -21.30581,-38.10463 -22.53499,-38.10463c-8.60427,0 -226.16939,499.86713 -220.02348,506.01304c5.32645,5.32645 282.30201,40.15326 437.58861,54.90344c92.18861,9.014 111.85551,9.83345 109.80688,5.32645zm1291.46001,-4.91673c177.41186,-16.38909 435.13024,-48.3478 442.0956,-55.31317c5.73618,-6.14591 -117.18197,-297.87164 -189.70367,-450.69988l-27.45172,-57.3618l-22.94472,43.02135c-77.84816,146.68232 -184.78695,333.10818 -263.86429,460.53333c-22.53499,35.64626 -40.56299,65.55635 -40.56299,66.3758c0,2.45836 9.83345,2.04864 102.43179,-6.55563zm-1942.10673,-154.46714c60.22989,-155.28659 126.19597,-306.88564 206.91222,-476.92241l39.74353,-82.76489l-38.10463,-78.25789c-74.98007,-155.28659 -149.14069,-324.50391 -206.50249,-471.59596c-17.61827,-45.06999 -33.1879,-83.17461 -34.41708,-84.81352c-1.22918,-1.63891 -37.28517,4.507 -80.30652,13.11127c-409.31743,82.35516 -744.88398,205.68303 -940.73356,346.62918c-42.61162,30.72954 -104.0707,88.91079 -129.06406,121.68897c-92.59834,123.32787 -75.3898,239.28066 54.49371,363.42799c151.18932,145.04341 444.55397,274.5172 839.12122,371.21281c68.42444,16.79881 242.14875,54.08399 254.44057,54.49371c2.45836,0.40973 17.61827,-34.00735 34.41708,-76.20925zm2638.6429,53.26453c454.38742,-94.23725 811.25978,-240.50984 980.47709,-402.7618c128.2446,-122.91815 146.2726,-233.95421 58.18126,-358.51126c-22.53499,-31.95872 -89.73025,-95.87616 -132.7516,-126.60569c-198.30795,-141.7656 -532.23558,-264.68374 -940.73356,-347.0389c-42.61162,-8.60427 -79.07734,-14.34045 -80.30652,-12.70154c-1.22918,1.63891 -16.79881,39.74353 -34.41708,84.81352c-57.77153,147.9115 -131.11269,315.08019 -206.50249,471.59596l-38.10463,78.25789l22.53499,44.66026c74.98007,149.55041 189.29395,413.00498 252.39193,580.17366c4.91673,13.11127 -7.37509,14.34045 119.2306,-11.88209zm-2305.125,-782.57887c32.36845,-68.01471 178.64104,-324.91364 264.27402,-463.81114c29.50036,-48.3478 53.67426,-88.50107 53.67426,-89.32052c0,-8.60427 -534.69394,52.8548 -544.11767,62.27853c-2.45836,2.45836 18.028,56.95208 61.45907,161.02277c49.98671,120.86951 150.77959,344.58054 155.28659,344.99027c1.22918,0 5.32645,-6.96536 9.42372,-15.1599zm1861.39048,-40.97272c73.34116,-154.87687 195.03013,-443.73451 188.88422,-449.88042c-5.73618,-5.73618 -227.8083,-34.41708 -376.12953,-48.75753c-141.35587,-13.521 -167.98814,-15.97936 -167.98814,-13.521c0,1.22918 18.028,31.13926 40.15326,67.19525c82.35516,131.93215 193.80095,326.14282 261.40593,454.79715c13.11127,25.40308 24.58363,46.29917 25.40308,46.29917c0.81945,0 13.521,-25.40308 28.27117,-56.13262zm273.28802,-681.37627c160.20332,-485.52668 208.1414,-877.63557 135.20996,-1101.75633c-18.84745,-57.77153 -38.10463,-90.95943 -72.93143,-125.78624c-56.13262,-55.72289 -120.86951,-72.93143 -219.61376,-56.95208c-233.95421,38.10463 -570.34021,290.90628 -929.67092,699.40426l-45.88944,52.03535l55.31317,69.24389c102.02206,128.2446 242.96821,321.63582 327.78173,449.88042l27.45172,41.38244l43.84081,2.86809c113.49442,7.37509 288.44792,24.99336 428.98434,43.43108c53.67426,6.96536 211.00949,30.72954 213.87758,32.36845c0.40973,0.40973 16.38909,-47.52835 35.64626,-106.11933zm-2326.43081,92.18861c146.2726,-22.94472 380.63653,-49.57699 531.0064,-59.82017l72.52171,-5.32645l27.45172,-40.97272c83.99407,-127.01542 230.26666,-327.372 333.10818,-456.43606l49.98671,-62.68826l-45.88944,-52.03535c-361.78908,-410.54661 -695.30699,-661.29963 -931.30983,-699.40426c-98.33452,-15.97936 -162.25196,1.22918 -219.61376,59.00071c-34.82681,35.23654 -56.95208,74.98007 -75.3898,135.61969c-59.41044,197.48849 -27.45172,530.18694 90.13998,934.17792c17.20854,58.59098 78.25789,247.88493 82.35516,255.26002c2.86809,4.507 15.97936,3.68754 85.63298,-7.37509zm1428.30888,-81.94543c-3.68754,-6.96536 -57.3618,-82.76489 -96.28588,-137.2586c-77.84816,-108.16797 -222.48185,-295.00355 -228.21803,-295.00355c-9.014,0 -265.91293,341.30272 -320.81637,426.11625l-6.55563,10.24318l327.372,0c216.74567,0 326.14282,-1.22918 324.50391,-4.09727z"/>
    <path stroke="null" d="m5068.78394,6472.34771c-103.66097,-20.48636 -189.29395,-94.64697 -222.07212,-192.57176c-9.83345,-29.09063 -11.06263,-39.74353 -11.06263,-88.50107c-0.40973,-50.39644 0.81945,-58.59098 11.47236,-91.77888c29.91008,-91.36916 108.98742,-165.12005 203.22467,-189.70367c35.64626,-9.42372 103.66097,-9.42372 139.30723,0c68.42444,18.028 133.57105,64.73689 172.90486,125.37651c54.08399,82.76489 59.00071,194.6204 12.70154,287.21874c-22.94472,45.88944 -77.43843,99.5637 -124.14733,122.50842c-19.25718,9.014 -45.88944,19.6669 -59.41044,22.94472c-35.64626,9.014 -89.32052,11.06263 -122.91815,4.507z"/>
   </g>
  </g>
 </g>
</svg>