<svg id="first" viewBox="0 0 960 200" width="960" height="200" xmlns="http://www.w3.org/2000/svg"
    xmlns:xlink="http://www.w3.org/1999/xlink" version="1.1">
    <path
        d="M0 85L22.8 90.8C45.7 96.7 91.3 108.3 137 112C182.7 115.7 228.3 111.3 274 102.2C319.7 93 365.3 79 411.2 80.2C457 81.3 503 97.7 548.8 109.7C594.7 121.7 640.3 129.3 686 134.8C731.7 140.3 777.3 143.7 823 134.2C868.7 124.7 914.3 102.3 937.2 91.2L960 80L960 0L937.2 0C914.3 0 868.7 0 823 0C777.3 0 731.7 0 686 0C640.3 0 594.7 0 548.8 0C503 0 457 0 411.2 0C365.3 0 319.7 0 274 0C228.3 0 182.7 0 137 0C91.3 0 45.7 0 22.8 0L0 0Z"
        fill="#b0b8c6">
    </path>
    <path
        d="M0 34L22.8 36.2C45.7 38.3 91.3 42.7 137 52.2C182.7 61.7 228.3 76.3 274 81.3C319.7 86.3 365.3 81.7 411.2 74.7C457 67.7 503 58.3 548.8 55.3C594.7 52.3 640.3 55.7 686 63.2C731.7 70.7 777.3 82.3 823 81.7C868.7 81 914.3 68 937.2 61.5L960 55L960 0L937.2 0C914.3 0 868.7 0 823 0C777.3 0 731.7 0 686 0C640.3 0 594.7 0 548.8 0C503 0 457 0 411.2 0C365.3 0 319.7 0 274 0C228.3 0 182.7 0 137 0C91.3 0 45.7 0 22.8 0L0 0Z"
        fill="#1b212b">
    </path>
</svg>