<svg id="second" viewBox="0 0 960 200" width="960" height="200" xmlns="http://www.w3.org/2000/svg"
    xmlns:xlink="http://www.w3.org/1999/xlink" version="1.1">
    <path
        d="M0 102L22.8 107.7C45.7 113.3 91.3 124.7 137 117.7C182.7 110.7 228.3 85.3 274 74.5C319.7 63.7 365.3 67.3 411.2 70C457 72.7 503 74.3 548.8 77.8C594.7 81.3 640.3 86.7 686 94C731.7 101.3 777.3 110.7 823 106.7C868.7 102.7 914.3 85.3 937.2 76.7L960 68L960 0L937.2 0C914.3 0 868.7 0 823 0C777.3 0 731.7 0 686 0C640.3 0 594.7 0 548.8 0C503 0 457 0 411.2 0C365.3 0 319.7 0 274 0C228.3 0 182.7 0 137 0C91.3 0 45.7 0 22.8 0L0 0Z"
        fill="#b0b8c6"></path>
    <path
        d="M0 50L22.8 56.7C45.7 63.3 91.3 76.7 137 75.5C182.7 74.3 228.3 58.7 274 49.5C319.7 40.3 365.3 37.7 411.2 46.3C457 55 503 75 548.8 82C594.7 89 640.3 83 686 75.3C731.7 67.7 777.3 58.3 823 59.2C868.7 60 914.3 71 937.2 76.5L960 82L960 0L937.2 0C914.3 0 868.7 0 823 0C777.3 0 731.7 0 686 0C640.3 0 594.7 0 548.8 0C503 0 457 0 411.2 0C365.3 0 319.7 0 274 0C228.3 0 182.7 0 137 0C91.3 0 45.7 0 22.8 0L0 0Z"
        fill="#1b212b"></path>
</svg>